<svg data-name="Layer 1" xmlns="http://www.w3.org/2000/svg" viewBox="0 0 1920 950"><defs><style>.svg-banner{fill:#fff;}</style></defs><path class="svg-banner" d="M1921,861v90H1V1H533c1.35,5.14,2.63,10.31,4.06,15.43,8.73,31.25,22.22,59.89,45.85,82.9C601,117,622.56,129.16,646,137.84c28.53,10.56,57.47,20,86.15,30.2,56.66,20.08,106.63,50.54,147.52,95.14,31.07,33.91,55.76,72.12,76.53,113,33.12,65.14,56.24,134,74.87,204.4,9.09,34.36,19.56,68.1,37.48,99.11,27.7,48,67.66,79.37,122.36,90.87,39.19,8.24,78.69,7.1,117.8.75s78.19-14.42,117-23c61.86-13.76,123.16-30.2,186.25-37.86,35.68-4.32,71.42-5.73,107.17-1.24,73.56,9.24,131.68,44.34,173.76,105.36C1903.14,829.39,1911.67,845.47,1921,861Z" transform="translate(-1 -1)"/></svg>